<svg width="16" height="16" viewBox="0 0 16 16" fill="none" xmlns="http://www.w3.org/2000/svg">
<path d="M13.3072 1.60583C13.2476 1.5587 13.1779 1.52598 13.1035 1.51023C13.0291 1.49447 12.9521 1.49611 12.8785 1.51501L4.8785 3.51501C4.77031 3.54198 4.67424 3.60436 4.60559 3.69222C4.53693 3.78008 4.49962 3.88837 4.4996 3.99988V10.8809C4.08264 10.6024 3.58461 10.4713 3.08461 10.5084C2.58462 10.5454 2.11134 10.7485 1.73997 11.0853C1.3686 11.4222 1.12044 11.8734 1.03492 12.3674C0.949392 12.8615 1.03141 13.3699 1.26793 13.812C1.50445 14.254 1.88192 14.6044 2.34037 14.8074C2.79881 15.0103 3.31193 15.0543 3.79822 14.9322C4.2845 14.8102 4.71605 14.5291 5.02431 14.1337C5.33257 13.7383 5.49986 13.2512 5.4996 12.7499V6.89001L12.4996 5.14001V8.88086C12.0826 8.60244 11.5846 8.47134 11.0846 8.50838C10.5846 8.54543 10.1113 8.7485 9.73997 9.08533C9.3686 9.42215 9.12044 9.87342 9.03492 10.3674C8.94939 10.8615 9.03141 11.3699 9.26793 11.812C9.50445 12.254 9.88192 12.6044 10.3404 12.8074C10.7988 13.0103 11.3119 13.0543 11.7982 12.9322C12.2845 12.8102 12.7161 12.5291 13.0243 12.1337C13.3326 11.7383 13.4999 11.2512 13.4996 10.7499V1.99988C13.4995 1.92391 13.4821 1.84895 13.4488 1.78069C13.4155 1.71242 13.3671 1.65263 13.3072 1.60583Z" fill="white"/>
</svg>

