<svg width="10" height="10" viewBox="0 0 10 10" fill="none" xmlns="http://www.w3.org/2000/svg">
<path d="M10 0.832845V9.16618C10 9.38719 9.90422 9.59915 9.73373 9.75543C9.56325 9.91171 9.33202 9.99951 9.09091 9.99951H6.81818C6.57708 9.99951 6.34585 9.91171 6.17536 9.75543C6.00487 9.59915 5.90909 9.38719 5.90909 9.16618V0.832845C5.90909 0.611831 6.00487 0.39987 6.17536 0.243589C6.34585 0.087309 6.57708 -0.000488281 6.81818 -0.000488281H9.09091C9.33202 -0.000488281 9.56325 0.087309 9.73373 0.243589C9.90422 0.39987 10 0.611831 10 0.832845ZM3.18182 -0.000488281H0.909091C0.667985 -0.000488281 0.436754 0.087309 0.266267 0.243589C0.0957789 0.39987 0 0.611831 0 0.832845V9.16618C0 9.38719 0.0957789 9.59915 0.266267 9.75543C0.436754 9.91171 0.667985 9.99951 0.909091 9.99951H3.18182C3.42292 9.99951 3.65415 9.91171 3.82464 9.75543C3.99513 9.59915 4.09091 9.38719 4.09091 9.16618V0.832845C4.09091 0.611831 3.99513 0.39987 3.82464 0.243589C3.65415 0.087309 3.42292 -0.000488281 3.18182 -0.000488281Z" fill="currentColor"/>
</svg>
