<svg width="12" height="12" viewBox="0 0 12 12" fill="none" xmlns="http://www.w3.org/2000/svg">
<g clip-path="url(#clip0_3233_4643)">
<path fill-rule="evenodd" clip-rule="evenodd" d="M6.60552 11.2211C6.65129 11.2402 6.7004 11.25 6.75 11.25C6.84943 11.2499 6.94478 11.2104 7.01509 11.1401C7.0854 11.0697 7.12493 10.9744 7.125 10.875V1.12497C7.12499 1.05062 7.10289 0.977962 7.0615 0.91621C7.02011 0.854457 6.9613 0.8064 6.89253 0.778144C6.82377 0.749888 6.74816 0.742707 6.67531 0.757513C6.60246 0.77232 6.53565 0.808446 6.48337 0.861303L3.62475 3.74997H1.12455C1.07533 3.74999 1.0266 3.75971 0.981141 3.77857C0.935681 3.79743 0.89438 3.82506 0.859599 3.85988C0.824818 3.89471 0.797237 3.93604 0.778432 3.98152C0.759627 4.02701 0.749966 4.07575 0.75 4.12497V7.87542C0.750025 7.92463 0.759745 7.97336 0.778604 8.01882C0.797464 8.06429 0.825094 8.10559 0.859917 8.14037C0.89474 8.17515 0.936074 8.20273 0.981557 8.22153C1.02704 8.24034 1.07578 8.25 1.125 8.24997H3.62475L6.48341 11.1386C6.51824 11.1739 6.55975 11.202 6.60552 11.2211ZM8.25 5.625H12V6.375H8.25V5.625Z" fill="currentColor"/>
</g>
<defs>
<clipPath id="clip0_3233_4643">
<rect width="12" height="12" fill="currentColor"/>
</clipPath>
</defs>
</svg>
